<svg width="4176" height="2320" viewBox="0 0 4176 2320" fill="none" xmlns="http://www.w3.org/2000/svg">
<rect width="4176" height="2320" fill="white"/>
<rect width="4176" height="2320" fill="white"/>
<path d="M1002.66 1304C995.607 1314.43 988.554 1321.94 981.501 1326.54C974.447 1331.14 965.094 1333.44 953.441 1333.44C940.867 1333.44 930.441 1329.76 922.161 1322.4C914.187 1315.04 908.207 1302.16 904.221 1283.76L894.101 1237.76C890.421 1221.81 886.894 1209.55 883.521 1200.96C880.454 1192.37 875.701 1185.47 869.261 1180.26C862.821 1175.05 853.774 1172.44 842.121 1172.44H798.421V1278.24C798.421 1289.89 799.341 1298.33 801.181 1303.54C803.021 1308.75 806.394 1312.28 811.301 1314.12C816.514 1315.96 824.641 1317.19 835.681 1317.8V1327C821.574 1326.08 802.101 1325.62 777.261 1325.62C750.887 1325.62 731.261 1326.08 718.381 1327V1317.8C729.421 1317.19 737.394 1315.96 742.301 1314.12C747.514 1312.28 751.041 1308.75 752.881 1303.54C754.721 1298.33 755.641 1289.89 755.641 1278.24V1050.08C755.641 1038.43 754.721 1029.99 752.881 1024.78C751.041 1019.57 747.514 1016.04 742.301 1014.2C737.394 1012.36 729.421 1011.13 718.381 1010.52V1001.32C731.261 1002.24 749.967 1002.7 774.501 1002.7L824.181 1002.24C830.007 1001.93 836.601 1001.78 843.961 1001.78C879.534 1001.78 906.827 1009.29 925.841 1024.32C945.161 1039.04 954.821 1058.21 954.821 1081.82C954.821 1093.78 951.907 1105.89 946.081 1118.16C940.561 1130.12 931.054 1141.01 917.561 1150.82C904.374 1160.33 887.047 1166.77 865.581 1170.14L871.101 1171.06C891.341 1174.43 906.061 1180.57 915.261 1189.46C924.461 1198.35 931.207 1212.46 935.501 1231.78L947.001 1278.7C950.067 1292.81 953.287 1302.62 956.661 1308.14C960.034 1313.66 964.634 1316.42 970.461 1316.42C975.674 1316.42 979.967 1315.04 983.341 1312.28C987.021 1309.52 991.161 1305.07 995.761 1298.94L1002.66 1304ZM832.461 1010.52C822.954 1010.52 815.747 1011.59 810.841 1013.74C806.241 1015.89 803.021 1019.72 801.181 1025.24C799.341 1030.76 798.421 1039.04 798.421 1050.08V1163.24H829.241C859.601 1163.24 880.454 1156.49 891.801 1143C903.147 1129.51 908.821 1110.8 908.821 1086.88C908.821 1061.73 902.841 1042.72 890.881 1029.84C878.921 1016.96 859.447 1010.52 832.461 1010.52ZM1143.16 1056.52C1132.12 1057.13 1124 1058.36 1118.78 1060.2C1113.88 1062.04 1110.5 1065.57 1108.66 1070.78C1106.82 1075.99 1105.9 1084.43 1105.9 1096.08V1278.24C1105.9 1289.89 1106.82 1298.33 1108.66 1303.54C1110.5 1308.75 1113.88 1312.28 1118.78 1314.12C1124 1315.96 1132.12 1317.19 1143.16 1317.8V1327C1129.06 1326.08 1109.58 1325.62 1084.74 1325.62C1058.37 1325.62 1038.74 1326.08 1025.86 1327V1317.8C1036.9 1317.19 1044.88 1315.96 1049.78 1314.12C1055 1312.28 1058.52 1308.75 1060.36 1303.54C1062.2 1298.33 1063.12 1289.89 1063.12 1278.24V1096.08C1063.12 1084.43 1062.2 1075.99 1060.36 1070.78C1058.52 1065.57 1055 1062.04 1049.78 1060.2C1044.88 1058.36 1036.9 1057.13 1025.86 1056.52V1047.32C1038.74 1048.24 1058.37 1048.7 1084.74 1048.7C1109.28 1048.7 1128.75 1048.24 1143.16 1047.32V1056.52ZM1289.38 1040.88C1302.87 1040.88 1313.45 1042.41 1321.12 1045.48C1329.09 1048.24 1337.22 1052.38 1345.5 1057.9C1352.25 1062.19 1357.46 1064.34 1361.14 1064.34C1363.9 1064.34 1366.05 1062.81 1367.58 1059.74C1369.11 1056.37 1370.34 1051.15 1371.26 1044.1H1381.84C1380.31 1060.05 1379.54 1088.26 1379.54 1128.74H1368.96C1367.12 1106.66 1359.91 1087.95 1347.34 1072.62C1335.07 1057.29 1317.13 1049.62 1293.52 1049.62C1277.27 1049.62 1263.77 1053.91 1253.04 1062.5C1242.61 1071.09 1237.4 1081.97 1237.4 1095.16C1237.4 1104.67 1239.7 1112.95 1244.3 1120C1249.21 1127.05 1255.34 1133.19 1262.7 1138.4C1270.37 1143.31 1281.1 1149.44 1294.9 1156.8L1310.08 1165.08C1329.09 1175.2 1344.27 1184.25 1355.62 1192.22C1367.27 1200.19 1376.63 1209.39 1383.68 1219.82C1390.73 1229.94 1394.26 1241.75 1394.26 1255.24C1394.26 1280.08 1385.21 1299.4 1367.12 1313.2C1349.33 1326.69 1326.95 1333.44 1299.96 1333.44C1285.24 1333.44 1273.13 1331.91 1263.62 1328.84C1254.42 1325.77 1245.53 1321.63 1236.94 1316.42C1230.19 1312.13 1224.98 1309.98 1221.3 1309.98C1218.54 1309.98 1216.39 1311.67 1214.86 1315.04C1213.33 1318.11 1212.1 1323.17 1211.18 1330.22H1200.6C1201.83 1315.19 1202.44 1281.46 1202.44 1229.02H1213.02C1215.17 1257.54 1222.83 1280.54 1236.02 1298.02C1249.21 1315.5 1269.45 1324.24 1296.74 1324.24C1312.07 1324.24 1325.26 1319.95 1336.3 1311.36C1347.65 1302.47 1353.32 1289.43 1353.32 1272.26C1353.32 1262.14 1350.41 1253.25 1344.58 1245.58C1338.75 1237.61 1330.93 1230.55 1321.12 1224.42C1311.31 1218.29 1297.66 1210.62 1280.18 1201.42C1255.03 1188.54 1235.87 1175.66 1222.68 1162.78C1209.49 1149.9 1202.9 1133.19 1202.9 1112.64C1202.9 1089.95 1211.18 1072.31 1227.74 1059.74C1244.61 1047.17 1265.15 1040.88 1289.38 1040.88ZM1687.35 1289.74C1698.09 1303.23 1710.05 1312.59 1723.23 1317.8V1327C1708.51 1326.08 1691.34 1325.62 1671.71 1325.62C1650.86 1325.62 1631.39 1326.08 1613.29 1327V1317.8C1623.11 1317.49 1630.16 1316.73 1634.45 1315.5C1638.75 1313.97 1640.89 1311.82 1640.89 1309.06C1640.89 1305.99 1638.9 1302.01 1634.91 1297.1L1573.73 1212C1567.6 1203.41 1561.16 1197.28 1554.41 1193.6C1547.67 1189.61 1538.31 1187.47 1526.35 1187.16V1278.24C1526.35 1289.89 1527.27 1298.33 1529.11 1303.54C1530.95 1308.75 1534.33 1312.28 1539.23 1314.12C1544.45 1315.96 1552.57 1317.19 1563.61 1317.8V1327C1549.51 1326.08 1530.03 1325.62 1505.19 1325.62C1478.82 1325.62 1459.19 1326.08 1446.31 1327V1317.8C1457.35 1317.19 1465.33 1315.96 1470.23 1314.12C1475.45 1312.28 1478.97 1308.75 1480.81 1303.54C1482.65 1298.33 1483.57 1289.89 1483.57 1278.24V1096.08C1483.57 1084.43 1482.65 1075.99 1480.81 1070.78C1478.97 1065.57 1475.45 1062.04 1470.23 1060.2C1465.33 1058.36 1457.35 1057.13 1446.31 1056.52V1047.32C1459.19 1048.24 1478.82 1048.7 1505.19 1048.7C1529.73 1048.7 1549.2 1048.24 1563.61 1047.32V1056.52C1552.57 1057.13 1544.45 1058.36 1539.23 1060.2C1534.33 1062.04 1530.95 1065.57 1529.11 1070.78C1527.27 1075.99 1526.35 1084.43 1526.35 1096.08V1179.34C1537.09 1178.73 1547.21 1176.27 1556.71 1171.98C1566.22 1167.38 1576.65 1159.56 1587.99 1148.52L1642.73 1092.4C1650.71 1085.04 1654.69 1078.14 1654.69 1071.7C1654.69 1067.1 1652.39 1063.42 1647.79 1060.66C1643.19 1057.9 1636.45 1056.37 1627.55 1056.06V1047.32C1644.11 1048.24 1662.21 1048.7 1681.83 1048.7C1695.02 1048.7 1705.91 1048.24 1714.49 1047.32V1056.06C1703.45 1058.21 1694.25 1061.43 1686.89 1065.72C1679.53 1070.01 1670.03 1077.83 1658.37 1089.18L1586.15 1161.4L1687.35 1289.74ZM1999.53 1001.32C2053.81 1001.32 2094.44 1014.97 2121.43 1042.26C2148.42 1069.25 2161.91 1108.65 2161.91 1160.48C2161.91 1193.91 2155.32 1223.19 2142.13 1248.34C2128.94 1273.49 2109.78 1292.96 2084.63 1306.76C2059.79 1320.25 2030.04 1327 1995.39 1327L1968.71 1326.54C1951.54 1325.93 1938.96 1325.62 1930.99 1325.62C1905.84 1325.62 1886.83 1326.08 1873.95 1327V1317.8C1884.99 1317.19 1892.96 1315.96 1897.87 1314.12C1903.08 1312.28 1906.61 1308.75 1908.45 1303.54C1910.29 1298.33 1911.21 1289.89 1911.21 1278.24V1050.08C1911.21 1038.43 1910.29 1029.99 1908.45 1024.78C1906.61 1019.57 1903.08 1016.04 1897.87 1014.2C1892.96 1012.36 1884.99 1011.13 1873.95 1010.52V1001.32C1884.68 1002.24 1899.56 1002.7 1918.57 1002.7L1957.67 1002.24C1978.52 1001.63 1992.48 1001.32 1999.53 1001.32ZM1988.03 1009.6C1978.52 1009.6 1971.32 1010.67 1966.41 1012.82C1961.81 1014.97 1958.59 1018.8 1956.75 1024.32C1954.91 1029.84 1953.99 1038.12 1953.99 1049.16V1279.16C1953.99 1290.2 1954.91 1298.48 1956.75 1304C1958.59 1309.52 1961.81 1313.35 1966.41 1315.5C1971.32 1317.65 1978.68 1318.72 1988.49 1318.72C2021 1318.72 2046.6 1312.89 2065.31 1301.24C2084.02 1289.28 2097.05 1271.95 2104.41 1249.26C2112.08 1226.57 2115.91 1197.59 2115.91 1162.32C2115.91 1127.05 2111.77 1098.38 2103.49 1076.3C2095.21 1053.91 2081.72 1037.2 2063.01 1026.16C2044.61 1015.12 2019.62 1009.6 1988.03 1009.6ZM2330.63 1056.52C2319.59 1057.13 2311.46 1058.36 2306.25 1060.2C2301.34 1062.04 2297.97 1065.57 2296.13 1070.78C2294.29 1075.99 2293.37 1084.43 2293.37 1096.08V1278.24C2293.37 1289.89 2294.29 1298.33 2296.13 1303.54C2297.97 1308.75 2301.34 1312.28 2306.25 1314.12C2311.46 1315.96 2319.59 1317.19 2330.63 1317.8V1327C2316.52 1326.08 2297.05 1325.62 2272.21 1325.62C2245.83 1325.62 2226.21 1326.08 2213.33 1327V1317.8C2224.37 1317.19 2232.34 1315.96 2237.25 1314.12C2242.46 1312.28 2245.99 1308.75 2247.83 1303.54C2249.67 1298.33 2250.59 1289.89 2250.59 1278.24V1096.08C2250.59 1084.43 2249.67 1075.99 2247.83 1070.78C2245.99 1065.57 2242.46 1062.04 2237.25 1060.2C2232.34 1058.36 2224.37 1057.13 2213.33 1056.52V1047.32C2226.21 1048.24 2245.83 1048.7 2272.21 1048.7C2296.74 1048.7 2316.21 1048.24 2330.63 1047.32V1056.52ZM2613.01 1048.7C2625.89 1048.7 2636.16 1048.24 2643.83 1047.32V1056.52C2635.24 1058.67 2628.34 1062.96 2623.13 1069.4C2617.91 1075.53 2611.93 1086.27 2605.19 1101.6L2504.45 1329.3H2497.09L2389.45 1085.96C2381.17 1066.95 2370.59 1057.13 2357.71 1056.52V1047.32C2370.28 1048.24 2386.69 1048.7 2406.93 1048.7C2433.3 1048.7 2452.93 1048.24 2465.81 1047.32V1056.52C2454.46 1057.13 2446.03 1058.67 2440.51 1061.12C2435.29 1063.57 2432.69 1067.71 2432.69 1073.54C2432.69 1078.45 2434.83 1085.65 2439.13 1095.16L2518.25 1273.64L2586.79 1120.92C2594.45 1104.36 2598.29 1091.33 2598.29 1081.82C2598.29 1073.23 2595.22 1067.1 2589.09 1063.42C2583.26 1059.43 2574.21 1057.13 2561.95 1056.52V1047.32C2571.15 1048.24 2588.17 1048.7 2613.01 1048.7ZM2897.38 1272.72C2897.38 1288.67 2898.46 1306.76 2900.6 1327C2880.67 1326.08 2847.09 1325.62 2799.86 1325.62C2743.13 1325.62 2700.2 1326.08 2671.06 1327V1317.8C2682.1 1317.19 2690.08 1315.96 2694.98 1314.12C2700.2 1312.28 2703.72 1308.75 2705.56 1303.54C2707.4 1298.33 2708.32 1289.89 2708.32 1278.24V1096.08C2708.32 1084.43 2707.4 1075.99 2705.56 1070.78C2703.72 1065.57 2700.2 1062.04 2694.98 1060.2C2690.08 1058.36 2682.1 1057.13 2671.06 1056.52V1047.32C2700.2 1048.24 2743.13 1048.7 2799.86 1048.7C2842.8 1048.7 2873.31 1048.24 2891.4 1047.32C2889.26 1065.72 2888.18 1082.28 2888.18 1097C2888.18 1108.96 2888.64 1118.47 2889.56 1125.52H2878.98C2876.84 1100.37 2871.47 1082.89 2862.88 1073.08C2854.6 1062.96 2840.96 1057.9 2821.94 1057.9H2788.36C2777.32 1057.9 2769.2 1058.82 2763.98 1060.66C2759.08 1062.19 2755.7 1065.57 2753.86 1070.78C2752.02 1075.99 2751.1 1084.43 2751.1 1096.08V1181.64H2789.28C2799.1 1181.64 2806.61 1179.19 2811.82 1174.28C2817.04 1169.07 2820.56 1163.55 2822.4 1157.72C2824.24 1151.59 2825.93 1143.92 2827.46 1134.72H2838.04C2837.12 1145.15 2836.66 1156.49 2836.66 1168.76V1186.24C2836.66 1198.2 2837.58 1215.37 2839.42 1237.76H2828.84C2827 1223.04 2823.48 1211.54 2818.26 1203.26C2813.05 1194.98 2803.39 1190.84 2789.28 1190.84H2751.1V1278.24C2751.1 1289.89 2752.02 1298.33 2753.86 1303.54C2755.7 1308.75 2759.08 1312.28 2763.98 1314.12C2769.2 1315.65 2777.32 1316.42 2788.36 1316.42H2821.94C2837.28 1316.42 2849.39 1313.97 2858.28 1309.06C2867.18 1304.15 2873.92 1296.33 2878.52 1285.6C2883.12 1274.56 2886.34 1259.23 2888.18 1239.6H2898.76C2897.84 1247.88 2897.38 1258.92 2897.38 1272.72ZM3225.24 1307.68C3219.41 1315.96 3212.66 1322.4 3205 1327C3197.64 1331.29 3188.74 1333.44 3178.32 1333.44C3152.56 1333.44 3136.76 1321.79 3130.94 1298.48L3116.68 1240.98C3112.38 1223.81 3105.94 1212.31 3097.36 1206.48C3089.08 1200.65 3076.66 1197.74 3060.1 1197.74H3033.88V1278.24C3033.88 1289.89 3034.8 1298.33 3036.64 1303.54C3038.48 1308.75 3041.85 1312.28 3046.76 1314.12C3051.97 1315.96 3060.1 1317.19 3071.14 1317.8V1327C3057.03 1326.08 3037.56 1325.62 3012.72 1325.62C2986.34 1325.62 2966.72 1326.08 2953.84 1327V1317.8C2964.88 1317.19 2972.85 1315.96 2977.76 1314.12C2982.97 1312.28 2986.5 1308.75 2988.34 1303.54C2990.18 1298.33 2991.1 1289.89 2991.1 1278.24V1096.08C2991.1 1084.43 2990.18 1075.99 2988.34 1070.78C2986.5 1065.57 2982.97 1062.04 2977.76 1060.2C2972.85 1058.36 2964.88 1057.13 2953.84 1056.52V1047.32C2966.72 1048.24 2985.42 1048.7 3009.96 1048.7L3056.88 1048.24C3062.09 1047.93 3068.07 1047.78 3074.82 1047.78C3109.16 1047.78 3135.38 1054.22 3153.48 1067.1C3171.88 1079.98 3181.08 1096.69 3181.08 1117.24C3181.08 1135.03 3173.87 1151.28 3159.46 1166C3145.35 1180.72 3122.04 1190.07 3089.54 1194.06C3095.67 1194.67 3100.88 1195.29 3105.18 1195.9C3121.43 1198.35 3134.31 1203.26 3143.82 1210.62C3153.32 1217.98 3160.07 1229.79 3164.06 1246.04L3174.18 1287.9C3176.63 1298.63 3179.24 1306.3 3182 1310.9C3185.06 1315.19 3188.9 1317.34 3193.5 1317.34C3201.16 1317.34 3209.6 1312.13 3218.8 1301.7L3225.24 1307.68ZM3063.32 1056.52C3055.04 1056.52 3048.75 1057.59 3044.46 1059.74C3040.47 1061.89 3037.71 1065.72 3036.18 1071.24C3034.64 1076.76 3033.88 1085.04 3033.88 1096.08V1188.54H3064.7C3091.68 1188.54 3110.08 1182.87 3119.9 1171.52C3130.02 1159.87 3135.08 1143.46 3135.08 1122.3C3135.08 1100.22 3129.4 1083.81 3118.06 1073.08C3107.02 1062.04 3088.77 1056.52 3063.32 1056.52ZM3348.53 1040.88C3362.02 1040.88 3372.6 1042.41 3380.27 1045.48C3388.24 1048.24 3396.37 1052.38 3404.65 1057.9C3411.39 1062.19 3416.61 1064.34 3420.29 1064.34C3423.05 1064.34 3425.19 1062.81 3426.73 1059.74C3428.26 1056.37 3429.49 1051.15 3430.41 1044.1H3440.99C3439.45 1060.05 3438.69 1088.26 3438.69 1128.74H3428.11C3426.27 1106.66 3419.06 1087.95 3406.49 1072.62C3394.22 1057.29 3376.28 1049.62 3352.67 1049.62C3336.41 1049.62 3322.92 1053.91 3312.19 1062.5C3301.76 1071.09 3296.55 1081.97 3296.55 1095.16C3296.55 1104.67 3298.85 1112.95 3303.45 1120C3308.35 1127.05 3314.49 1133.19 3321.85 1138.4C3329.51 1143.31 3340.25 1149.44 3354.05 1156.8L3369.23 1165.08C3388.24 1175.2 3403.42 1184.25 3414.77 1192.22C3426.42 1200.19 3435.77 1209.39 3442.83 1219.82C3449.88 1229.94 3453.41 1241.75 3453.41 1255.24C3453.41 1280.08 3444.36 1299.4 3426.27 1313.2C3408.48 1326.69 3386.09 1333.44 3359.11 1333.44C3344.39 1333.44 3332.27 1331.91 3322.77 1328.84C3313.57 1325.77 3304.67 1321.63 3296.09 1316.42C3289.34 1312.13 3284.13 1309.98 3280.45 1309.98C3277.69 1309.98 3275.54 1311.67 3274.01 1315.04C3272.47 1318.11 3271.25 1323.17 3270.33 1330.22H3259.75C3260.97 1315.19 3261.59 1281.46 3261.59 1229.02H3272.17C3274.31 1257.54 3281.98 1280.54 3295.17 1298.02C3308.35 1315.5 3328.59 1324.24 3355.89 1324.24C3371.22 1324.24 3384.41 1319.95 3395.45 1311.36C3406.79 1302.47 3412.47 1289.43 3412.47 1272.26C3412.47 1262.14 3409.55 1253.25 3403.73 1245.58C3397.9 1237.61 3390.08 1230.55 3380.27 1224.42C3370.45 1218.29 3356.81 1210.62 3339.33 1201.42C3314.18 1188.54 3295.01 1175.66 3281.83 1162.78C3268.64 1149.9 3262.05 1133.19 3262.05 1112.64C3262.05 1089.95 3270.33 1072.31 3286.89 1059.74C3303.75 1047.17 3324.3 1040.88 3348.53 1040.88Z" fill="#000D1A"/>
<path d="M1492.39 1570H1502.91L1472.51 1529.23L1501.91 1497.27H1491.4L1462.28 1528.81H1458.45V1497.27H1449.64V1570H1458.45V1536.62H1467.39L1492.39 1570ZM1521.53 1515.45H1513.15V1570H1521.53V1546.7H1547.67V1570H1556.05V1515.45H1547.67V1538.89H1521.53V1515.45ZM1579.73 1557.64V1515.45H1571.35V1570H1581.16L1607.29 1527.81V1570H1615.67V1515.45H1606.01L1579.73 1557.64ZM1627.61 1570H1637.7L1656.31 1546.56H1660.57V1570H1668.95V1546.56H1673.21L1691.68 1570H1701.76L1679.74 1542.3L1701.48 1515.45H1691.53L1673.35 1538.75H1668.95V1515.45H1660.57V1538.75H1656.02L1637.84 1515.45H1627.9L1649.77 1542.3L1627.61 1570ZM1722.12 1515.45H1713.74V1570H1722.12V1546.7H1748.25V1570H1756.63V1515.45H1748.25V1538.89H1722.12V1515.45ZM1780.32 1535.2V1515.45H1771.94V1570H1794.81C1807.59 1570 1814.55 1562.19 1814.55 1552.39C1814.55 1542.44 1807.59 1535.2 1794.81 1535.2H1780.32ZM1823.22 1570H1831.6V1515.45H1823.22V1570ZM1780.32 1543.01H1794.81C1801.45 1543.01 1806.17 1547.06 1806.17 1552.81C1806.17 1558.32 1801.45 1562.19 1794.81 1562.19H1780.32V1543.01ZM1855.32 1557.64V1515.45H1846.94V1570H1856.74L1882.88 1527.81V1570H1891.26V1515.45H1881.6L1855.32 1557.64ZM1876.06 1497.27C1876.06 1500.97 1874.07 1504.23 1869.1 1504.23C1864.13 1504.23 1862.28 1500.97 1862.28 1497.27H1854.47C1854.47 1504.94 1860.15 1510.34 1869.1 1510.34C1878.19 1510.34 1883.87 1504.94 1883.87 1497.27H1876.06ZM1934.73 1570H1943.11V1546.99H1950.64L1968.54 1570H1979.34L1957.03 1541.73L1979.05 1515.45H1968.26L1948.65 1539.18H1943.11V1515.45H1934.73V1570ZM1983.61 1570H1986.46C1998.53 1570 2002.01 1560.62 2002.79 1542.73L2003.64 1523.27H2023.67V1570H2032.05V1515.45H1995.69L1994.69 1539.6C1993.98 1557.93 1992.14 1562.19 1985.6 1562.19H1983.61V1570ZM2050.87 1590.31C2058.44 1590.31 2063.8 1586.3 2066.92 1577.95L2090.15 1515.6L2080.99 1515.45L2065.93 1558.92H2065.36L2050.3 1515.45H2041.21L2061.38 1570.28L2059.82 1574.55C2056.84 1582.71 2053 1583.49 2046.9 1581.93L2044.76 1589.32C2045.62 1589.74 2048.03 1590.31 2050.87 1590.31ZM2141.72 1495C2139.06 1497.24 2135.08 1497.24 2129.5 1497.2C2127.69 1497.2 2125.7 1497.2 2123.54 1497.27C2106.92 1497.7 2098.68 1510.34 2098.68 1534.63V1540.45C2098.68 1560.62 2108.48 1571.14 2123.11 1571.14C2137.71 1571.14 2147.4 1560.55 2147.4 1543.44C2147.4 1526.25 2137.56 1517.16 2124.82 1517.16C2117.32 1517.16 2110.33 1520.28 2106.63 1527.1H2105.92C2107.06 1513.04 2112.32 1505.51 2123.68 1505.09C2133.77 1504.66 2141.01 1504.94 2145.98 1500.11L2141.72 1495ZM2123.11 1563.61C2113.17 1563.61 2107.06 1555.65 2107.06 1543.44C2107.24 1531.51 2113.24 1524.69 2122.97 1524.69C2132.95 1524.69 2139.02 1531.51 2139.02 1543.44C2139.02 1555.72 2132.98 1563.61 2123.11 1563.61ZM2210.51 1571.14C2225.28 1571.14 2235.22 1559.91 2235.22 1543.01C2235.22 1525.97 2225.28 1514.74 2210.51 1514.74C2195.73 1514.74 2185.79 1525.97 2185.79 1543.01C2185.79 1559.91 2195.73 1571.14 2210.51 1571.14ZM2210.51 1563.61C2199.28 1563.61 2194.17 1553.95 2194.17 1543.01C2194.17 1532.07 2199.28 1522.27 2210.51 1522.27C2221.73 1522.27 2226.84 1532.07 2226.84 1543.01C2226.84 1553.95 2221.73 1563.61 2210.51 1563.61ZM2298.3 1588.61H2306.68V1571.14C2321.45 1571.14 2331.39 1559.91 2331.39 1543.01C2331.39 1525.97 2321.45 1514.74 2306.68 1514.74V1497.27H2298.3V1514.74C2283.53 1514.74 2273.58 1525.97 2273.58 1543.01C2273.58 1559.91 2283.53 1571.14 2298.3 1571.14V1588.61ZM2306.68 1563.61V1522.27C2317.9 1522.27 2323.01 1532.07 2323.01 1543.01C2323.01 1553.95 2317.9 1563.61 2306.68 1563.61ZM2298.3 1563.61C2287.08 1563.61 2281.96 1553.95 2281.96 1543.01C2281.96 1532.07 2287.08 1522.27 2298.3 1522.27V1563.61ZM2352.59 1557.64V1515.45H2344.21V1570H2354.01L2380.14 1527.81V1570H2388.52V1515.45H2378.86L2352.59 1557.64ZM2412.25 1515.45H2403.87V1570H2412.25V1546.7H2438.39V1570H2446.77V1515.45H2438.39V1538.89H2412.25V1515.45ZM2478.13 1571.28C2487.64 1571.28 2492.62 1566.16 2494.32 1562.61H2494.75V1570H2503.13V1534.06C2503.13 1516.73 2489.92 1514.74 2482.96 1514.74C2474.72 1514.74 2465.34 1517.59 2461.08 1527.53L2469.04 1530.37C2470.88 1526.39 2475.25 1522.13 2483.24 1522.13C2490.95 1522.13 2494.75 1526.21 2494.75 1533.21V1533.49C2494.75 1537.54 2490.63 1537.19 2480.68 1538.47C2470.56 1539.78 2459.52 1542.02 2459.52 1554.52C2459.52 1565.17 2467.76 1571.28 2478.13 1571.28ZM2479.41 1563.75C2472.73 1563.75 2467.9 1560.77 2467.9 1554.94C2467.9 1548.55 2473.72 1546.56 2480.26 1545.71C2483.81 1545.28 2493.33 1544.29 2494.75 1542.59V1550.26C2494.75 1557.07 2489.35 1563.75 2479.41 1563.75ZM2526.81 1515.45H2518.42V1570H2526.81V1546.7H2552.94V1570H2561.32V1515.45H2552.94V1538.89H2526.81V1515.45ZM2598.79 1571.14C2610.86 1571.14 2618.81 1563.75 2620.24 1554.09H2611.85C2610.29 1560.06 2605.32 1563.61 2598.79 1563.61C2588.84 1563.61 2582.45 1555.37 2582.45 1542.73C2582.45 1530.37 2588.99 1522.27 2598.79 1522.27C2606.17 1522.27 2610.58 1526.82 2611.85 1531.79H2620.24C2618.81 1521.56 2610.15 1514.74 2598.64 1514.74C2583.87 1514.74 2574.07 1526.39 2574.07 1543.01C2574.07 1559.35 2583.45 1571.14 2598.79 1571.14ZM2648.54 1571.28C2658.06 1571.28 2663.03 1566.16 2664.73 1562.61H2665.16V1570H2673.54V1534.06C2673.54 1516.73 2660.33 1514.74 2653.37 1514.74C2645.13 1514.74 2635.75 1517.59 2631.49 1527.53L2639.45 1530.37C2641.29 1526.39 2645.66 1522.13 2653.65 1522.13C2661.36 1522.13 2665.16 1526.21 2665.16 1533.21V1533.49C2665.16 1537.54 2661.04 1537.19 2651.09 1538.47C2640.97 1539.78 2629.93 1542.02 2629.93 1554.52C2629.93 1565.17 2638.17 1571.28 2648.54 1571.28ZM2649.82 1563.75C2643.14 1563.75 2638.31 1560.77 2638.31 1554.94C2638.31 1548.55 2644.13 1546.56 2650.67 1545.71C2654.22 1545.28 2663.74 1544.29 2665.16 1542.59V1550.26C2665.16 1557.07 2659.76 1563.75 2649.82 1563.75ZM2695.08 1515.45H2685.43L2702.75 1542.73L2685.43 1570H2695.08L2708.15 1548.84L2721.22 1570H2730.88L2713.27 1542.73L2730.88 1515.45H2721.22L2708.15 1537.76L2695.08 1515.45Z" fill="#000D1A"/>
</svg>
