<svg width="2320" height="2320" viewBox="0 0 2320 2320" fill="none" xmlns="http://www.w3.org/2000/svg">
<rect width="2320" height="2320" fill="#000D1A"/>
<rect width="2320" height="2320" fill="white"/>
<path d="M1094.45 1472C1079.12 1494.67 1063.79 1511 1048.45 1521C1033.12 1531 1012.79 1536 987.453 1536C960.12 1536 937.453 1528 919.453 1512C902.12 1496 889.12 1468 880.453 1428L858.453 1328C850.453 1293.33 842.786 1266.67 835.453 1248C828.786 1229.33 818.453 1214.33 804.453 1203C790.453 1191.67 770.786 1186 745.453 1186H650.453V1416C650.453 1441.33 652.453 1459.67 656.453 1471C660.453 1482.33 667.786 1490 678.453 1494C689.786 1498 707.453 1500.67 731.453 1502V1522C700.786 1520 658.453 1519 604.453 1519C547.12 1519 504.453 1520 476.453 1522V1502C500.453 1500.67 517.786 1498 528.453 1494C539.786 1490 547.453 1482.33 551.453 1471C555.453 1459.67 557.453 1441.33 557.453 1416V920C557.453 894.667 555.453 876.333 551.453 865C547.453 853.667 539.786 846 528.453 842C517.786 838 500.453 835.333 476.453 834V814C504.453 816 545.12 817 598.453 817L706.453 816C719.12 815.333 733.453 815 749.453 815C826.786 815 886.12 831.333 927.453 864C969.453 896 990.453 937.667 990.453 989C990.453 1015 984.12 1041.33 971.453 1068C959.453 1094 938.787 1117.67 909.453 1139C880.786 1159.67 843.12 1173.67 796.453 1181L808.453 1183C852.453 1190.33 884.453 1203.67 904.453 1223C924.453 1242.33 939.12 1273 948.453 1315L973.453 1417C980.12 1447.67 987.12 1469 994.453 1481C1001.79 1493 1011.79 1499 1024.45 1499C1035.79 1499 1045.12 1496 1052.45 1490C1060.45 1484 1069.45 1474.33 1079.45 1461L1094.45 1472ZM724.453 834C703.786 834 688.12 836.333 677.453 841C667.453 845.667 660.453 854 656.453 866C652.453 878 650.453 896 650.453 920V1166H717.453C783.453 1166 828.786 1151.33 853.453 1122C878.12 1092.67 890.453 1052 890.453 1000C890.453 945.333 877.453 904 851.453 876C825.453 848 783.12 834 724.453 834ZM1477.89 814C1595.89 814 1684.22 843.667 1742.89 903C1801.56 961.667 1830.89 1047.33 1830.89 1160C1830.89 1232.67 1816.56 1296.33 1787.89 1351C1759.22 1405.67 1717.56 1448 1662.89 1478C1608.89 1507.33 1544.22 1522 1468.89 1522L1410.89 1521C1373.56 1519.67 1346.22 1519 1328.89 1519C1274.22 1519 1232.89 1520 1204.89 1522V1502C1228.89 1500.67 1246.22 1498 1256.89 1494C1268.22 1490 1275.89 1482.33 1279.89 1471C1283.89 1459.67 1285.89 1441.33 1285.89 1416V920C1285.89 894.667 1283.89 876.333 1279.89 865C1275.89 853.667 1268.22 846 1256.89 842C1246.22 838 1228.89 835.333 1204.89 834V814C1228.22 816 1260.56 817 1301.89 817L1386.89 816C1432.22 814.667 1462.56 814 1477.89 814ZM1452.89 832C1432.22 832 1416.56 834.333 1405.89 839C1395.89 843.667 1388.89 852 1384.89 864C1380.89 876 1378.89 894 1378.89 918V1418C1378.89 1442 1380.89 1460 1384.89 1472C1388.89 1484 1395.89 1492.33 1405.89 1497C1416.56 1501.67 1432.56 1504 1453.89 1504C1524.56 1504 1580.22 1491.33 1620.89 1466C1661.56 1440 1689.89 1402.33 1705.89 1353C1722.56 1303.67 1730.89 1240.67 1730.89 1164C1730.89 1087.33 1721.89 1025 1703.89 977C1685.89 928.333 1656.56 892 1615.89 868C1575.89 844 1521.56 832 1452.89 832Z" fill="#000D1A"/>
</svg>
