<svg width="2320" height="2320" viewBox="0 0 2320 2320" fill="none" xmlns="http://www.w3.org/2000/svg">
<rect width="2320" height="2320" fill="#000D1A"/>
<rect width="2320" height="2320" fill="white"/>
<path d="M452.17 1270C447.57 1276.8 442.97 1281.7 438.37 1284.7C433.77 1287.7 427.67 1289.2 420.07 1289.2C411.87 1289.2 405.07 1286.8 399.67 1282C394.47 1277.2 390.57 1268.8 387.97 1256.8L381.37 1226.8C378.97 1216.4 376.67 1208.4 374.47 1202.8C372.47 1197.2 369.37 1192.7 365.17 1189.3C360.97 1185.9 355.07 1184.2 347.47 1184.2H318.97V1253.2C318.97 1260.8 319.57 1266.3 320.77 1269.7C321.97 1273.1 324.17 1275.4 327.37 1276.6C330.77 1277.8 336.07 1278.6 343.27 1279V1285C334.07 1284.4 321.37 1284.1 305.17 1284.1C287.97 1284.1 275.17 1284.4 266.77 1285V1279C273.97 1278.6 279.17 1277.8 282.37 1276.6C285.77 1275.4 288.07 1273.1 289.27 1269.7C290.47 1266.3 291.07 1260.8 291.07 1253.2V1104.4C291.07 1096.8 290.47 1091.3 289.27 1087.9C288.07 1084.5 285.77 1082.2 282.37 1081C279.17 1079.8 273.97 1079 266.77 1078.6V1072.6C275.17 1073.2 287.37 1073.5 303.37 1073.5L335.77 1073.2C339.57 1073 343.87 1072.9 348.67 1072.9C371.87 1072.9 389.67 1077.8 402.07 1087.6C414.67 1097.2 420.97 1109.7 420.97 1125.1C420.97 1132.9 419.07 1140.8 415.27 1148.8C411.67 1156.6 405.47 1163.7 396.67 1170.1C388.07 1176.3 376.77 1180.5 362.77 1182.7L366.37 1183.3C379.57 1185.5 389.17 1189.5 395.17 1195.3C401.17 1201.1 405.57 1210.3 408.37 1222.9L415.87 1253.5C417.87 1262.7 419.97 1269.1 422.17 1272.7C424.37 1276.3 427.37 1278.1 431.17 1278.1C434.57 1278.1 437.37 1277.2 439.57 1275.4C441.97 1273.6 444.67 1270.7 447.67 1266.7L452.17 1270ZM341.17 1078.6C334.97 1078.6 330.27 1079.3 327.07 1080.7C324.07 1082.1 321.97 1084.6 320.77 1088.2C319.57 1091.8 318.97 1097.2 318.97 1104.4V1178.2H339.07C358.87 1178.2 372.47 1173.8 379.87 1165C387.27 1156.2 390.97 1144 390.97 1128.4C390.97 1112 387.07 1099.6 379.27 1091.2C371.47 1082.8 358.77 1078.6 341.17 1078.6ZM543.801 1108.6C536.601 1109 531.301 1109.8 527.901 1111C524.701 1112.2 522.501 1114.5 521.301 1117.9C520.101 1121.3 519.501 1126.8 519.501 1134.4V1253.2C519.501 1260.8 520.101 1266.3 521.301 1269.7C522.501 1273.1 524.701 1275.4 527.901 1276.6C531.301 1277.8 536.601 1278.6 543.801 1279V1285C534.601 1284.4 521.901 1284.1 505.701 1284.1C488.501 1284.1 475.701 1284.4 467.301 1285V1279C474.501 1278.6 479.701 1277.8 482.901 1276.6C486.301 1275.4 488.601 1273.1 489.801 1269.7C491.001 1266.3 491.601 1260.8 491.601 1253.2V1134.4C491.601 1126.8 491.001 1121.3 489.801 1117.9C488.601 1114.5 486.301 1112.2 482.901 1111C479.701 1109.8 474.501 1109 467.301 1108.6V1102.6C475.701 1103.2 488.501 1103.5 505.701 1103.5C521.701 1103.5 534.401 1103.2 543.801 1102.6V1108.6ZM639.161 1098.4C647.961 1098.4 654.861 1099.4 659.861 1101.4C665.061 1103.2 670.361 1105.9 675.761 1109.5C680.161 1112.3 683.561 1113.7 685.961 1113.7C687.761 1113.7 689.161 1112.7 690.161 1110.7C691.161 1108.5 691.961 1105.1 692.561 1100.5H699.461C698.461 1110.9 697.961 1129.3 697.961 1155.7H691.061C689.861 1141.3 685.161 1129.1 676.961 1119.1C668.961 1109.1 657.261 1104.1 641.861 1104.1C631.261 1104.1 622.461 1106.9 615.461 1112.5C608.661 1118.1 605.261 1125.2 605.261 1133.8C605.261 1140 606.761 1145.4 609.761 1150C612.961 1154.6 616.961 1158.6 621.761 1162C626.761 1165.2 633.761 1169.2 642.761 1174L652.661 1179.4C665.061 1186 674.961 1191.9 682.361 1197.1C689.961 1202.3 696.061 1208.3 700.661 1215.1C705.261 1221.7 707.561 1229.4 707.561 1238.2C707.561 1254.4 701.661 1267 689.861 1276C678.261 1284.8 663.661 1289.2 646.061 1289.2C636.461 1289.2 628.561 1288.2 622.361 1286.2C616.361 1284.2 610.561 1281.5 604.961 1278.1C600.561 1275.3 597.161 1273.9 594.761 1273.9C592.961 1273.9 591.561 1275 590.561 1277.2C589.561 1279.2 588.761 1282.5 588.161 1287.1H581.261C582.061 1277.3 582.461 1255.3 582.461 1221.1H589.361C590.761 1239.7 595.761 1254.7 604.361 1266.1C612.961 1277.5 626.161 1283.2 643.961 1283.2C653.961 1283.2 662.561 1280.4 669.761 1274.8C677.161 1269 680.861 1260.5 680.861 1249.3C680.861 1242.7 678.961 1236.9 675.161 1231.9C671.361 1226.7 666.261 1222.1 659.861 1218.1C653.461 1214.1 644.561 1209.1 633.161 1203.1C616.761 1194.7 604.261 1186.3 595.661 1177.9C587.061 1169.5 582.761 1158.6 582.761 1145.2C582.761 1130.4 588.161 1118.9 598.961 1110.7C609.961 1102.5 623.361 1098.4 639.161 1098.4ZM898.708 1260.7C905.708 1269.5 913.508 1275.6 922.108 1279V1285C912.508 1284.4 901.308 1284.1 888.508 1284.1C874.908 1284.1 862.208 1284.4 850.408 1285V1279C856.808 1278.8 861.408 1278.3 864.208 1277.5C867.008 1276.5 868.408 1275.1 868.408 1273.3C868.408 1271.3 867.108 1268.7 864.508 1265.5L824.608 1210C820.608 1204.4 816.408 1200.4 812.008 1198C807.608 1195.4 801.508 1194 793.708 1193.8V1253.2C793.708 1260.8 794.308 1266.3 795.508 1269.7C796.708 1273.1 798.908 1275.4 802.108 1276.6C805.508 1277.8 810.808 1278.6 818.008 1279V1285C808.808 1284.4 796.108 1284.1 779.908 1284.1C762.708 1284.1 749.908 1284.4 741.508 1285V1279C748.708 1278.6 753.908 1277.8 757.108 1276.6C760.508 1275.4 762.808 1273.1 764.008 1269.7C765.208 1266.3 765.808 1260.8 765.808 1253.2V1134.4C765.808 1126.8 765.208 1121.3 764.008 1117.9C762.808 1114.5 760.508 1112.2 757.108 1111C753.908 1109.8 748.708 1109 741.508 1108.6V1102.6C749.908 1103.2 762.708 1103.5 779.908 1103.5C795.908 1103.5 808.608 1103.2 818.008 1102.6V1108.6C810.808 1109 805.508 1109.8 802.108 1111C798.908 1112.2 796.708 1114.5 795.508 1117.9C794.308 1121.3 793.708 1126.8 793.708 1134.4V1188.7C800.708 1188.3 807.308 1186.7 813.508 1183.9C819.708 1180.9 826.508 1175.8 833.908 1168.6L869.608 1132C874.808 1127.2 877.408 1122.7 877.408 1118.5C877.408 1115.5 875.908 1113.1 872.908 1111.3C869.908 1109.5 865.508 1108.5 859.708 1108.3V1102.6C870.508 1103.2 882.308 1103.5 895.108 1103.5C903.708 1103.5 910.808 1103.2 916.408 1102.6V1108.3C909.208 1109.7 903.208 1111.8 898.408 1114.6C893.608 1117.4 887.408 1122.5 879.808 1129.9L832.708 1177L898.708 1260.7ZM1102.3 1072.6C1137.7 1072.6 1164.2 1081.5 1181.8 1099.3C1199.4 1116.9 1208.2 1142.6 1208.2 1176.4C1208.2 1198.2 1203.9 1217.3 1195.3 1233.7C1186.7 1250.1 1174.2 1262.8 1157.8 1271.8C1141.6 1280.6 1122.2 1285 1099.6 1285L1082.2 1284.7C1071 1284.3 1062.8 1284.1 1057.6 1284.1C1041.2 1284.1 1028.8 1284.4 1020.4 1285V1279C1027.6 1278.6 1032.8 1277.8 1036 1276.6C1039.4 1275.4 1041.7 1273.1 1042.9 1269.7C1044.1 1266.3 1044.7 1260.8 1044.7 1253.2V1104.4C1044.7 1096.8 1044.1 1091.3 1042.9 1087.9C1041.7 1084.5 1039.4 1082.2 1036 1081C1032.8 1079.8 1027.6 1079 1020.4 1078.6V1072.6C1027.4 1073.2 1037.1 1073.5 1049.5 1073.5L1075 1073.2C1088.6 1072.8 1097.7 1072.6 1102.3 1072.6ZM1094.8 1078C1088.6 1078 1083.9 1078.7 1080.7 1080.1C1077.7 1081.5 1075.6 1084 1074.4 1087.6C1073.2 1091.2 1072.6 1096.6 1072.6 1103.8V1253.8C1072.6 1261 1073.2 1266.4 1074.4 1270C1075.6 1273.6 1077.7 1276.1 1080.7 1277.5C1083.9 1278.9 1088.7 1279.6 1095.1 1279.6C1116.3 1279.6 1133 1275.8 1145.2 1268.2C1157.4 1260.4 1165.9 1249.1 1170.7 1234.3C1175.7 1219.5 1178.2 1200.6 1178.2 1177.6C1178.2 1154.6 1175.5 1135.9 1170.1 1121.5C1164.7 1106.9 1155.9 1096 1143.7 1088.8C1131.7 1081.6 1115.4 1078 1094.8 1078ZM1318.23 1108.6C1311.03 1109 1305.73 1109.8 1302.33 1111C1299.13 1112.2 1296.93 1114.5 1295.73 1117.9C1294.53 1121.3 1293.93 1126.8 1293.93 1134.4V1253.2C1293.93 1260.8 1294.53 1266.3 1295.73 1269.7C1296.93 1273.1 1299.13 1275.4 1302.33 1276.6C1305.73 1277.8 1311.03 1278.6 1318.23 1279V1285C1309.03 1284.4 1296.33 1284.1 1280.13 1284.1C1262.93 1284.1 1250.13 1284.4 1241.73 1285V1279C1248.93 1278.6 1254.13 1277.8 1257.33 1276.6C1260.73 1275.4 1263.03 1273.1 1264.23 1269.7C1265.43 1266.3 1266.03 1260.8 1266.03 1253.2V1134.4C1266.03 1126.8 1265.43 1121.3 1264.23 1117.9C1263.03 1114.5 1260.73 1112.2 1257.33 1111C1254.13 1109.8 1248.93 1109 1241.73 1108.6V1102.6C1250.13 1103.2 1262.93 1103.5 1280.13 1103.5C1296.13 1103.5 1308.83 1103.2 1318.23 1102.6V1108.6ZM1502.39 1103.5C1510.79 1103.5 1517.49 1103.2 1522.49 1102.6V1108.6C1516.89 1110 1512.39 1112.8 1508.99 1117C1505.59 1121 1501.69 1128 1497.29 1138L1431.59 1286.5H1426.79L1356.59 1127.8C1351.19 1115.4 1344.29 1109 1335.89 1108.6V1102.6C1344.09 1103.2 1354.79 1103.5 1367.99 1103.5C1385.19 1103.5 1397.99 1103.2 1406.39 1102.6V1108.6C1398.99 1109 1393.49 1110 1389.89 1111.6C1386.49 1113.2 1384.79 1115.9 1384.79 1119.7C1384.79 1122.9 1386.19 1127.6 1388.99 1133.8L1440.59 1250.2L1485.29 1150.6C1490.29 1139.8 1492.79 1131.3 1492.79 1125.1C1492.79 1119.5 1490.79 1115.5 1486.79 1113.1C1482.99 1110.5 1477.09 1109 1469.09 1108.6V1102.6C1475.09 1103.2 1486.19 1103.5 1502.39 1103.5ZM1687.86 1249.6C1687.86 1260 1688.56 1271.8 1689.96 1285C1676.96 1284.4 1655.06 1284.1 1624.26 1284.1C1587.26 1284.1 1559.26 1284.4 1540.26 1285V1279C1547.46 1278.6 1552.66 1277.8 1555.86 1276.6C1559.26 1275.4 1561.56 1273.1 1562.76 1269.7C1563.96 1266.3 1564.56 1260.8 1564.56 1253.2V1134.4C1564.56 1126.8 1563.96 1121.3 1562.76 1117.9C1561.56 1114.5 1559.26 1112.2 1555.86 1111C1552.66 1109.8 1547.46 1109 1540.26 1108.6V1102.6C1559.26 1103.2 1587.26 1103.5 1624.26 1103.5C1652.26 1103.5 1672.16 1103.2 1683.96 1102.6C1682.56 1114.6 1681.86 1125.4 1681.86 1135C1681.86 1142.8 1682.16 1149 1682.76 1153.6H1675.86C1674.46 1137.2 1670.96 1125.8 1665.36 1119.4C1659.96 1112.8 1651.06 1109.5 1638.66 1109.5H1616.76C1609.56 1109.5 1604.26 1110.1 1600.86 1111.3C1597.66 1112.3 1595.46 1114.5 1594.26 1117.9C1593.06 1121.3 1592.46 1126.8 1592.46 1134.4V1190.2H1617.36C1623.76 1190.2 1628.66 1188.6 1632.06 1185.4C1635.46 1182 1637.76 1178.4 1638.96 1174.6C1640.16 1170.6 1641.26 1165.6 1642.26 1159.6H1649.16C1648.56 1166.4 1648.26 1173.8 1648.26 1181.8V1193.2C1648.26 1201 1648.86 1212.2 1650.06 1226.8H1643.16C1641.96 1217.2 1639.66 1209.7 1636.26 1204.3C1632.86 1198.9 1626.56 1196.2 1617.36 1196.2H1592.46V1253.2C1592.46 1260.8 1593.06 1266.3 1594.26 1269.7C1595.46 1273.1 1597.66 1275.4 1600.86 1276.6C1604.26 1277.6 1609.56 1278.1 1616.76 1278.1H1638.66C1648.66 1278.1 1656.56 1276.5 1662.36 1273.3C1668.16 1270.1 1672.56 1265 1675.56 1258C1678.56 1250.8 1680.66 1240.8 1681.86 1228H1688.76C1688.16 1233.4 1687.86 1240.6 1687.86 1249.6ZM1901.68 1272.4C1897.88 1277.8 1893.48 1282 1888.48 1285C1883.68 1287.8 1877.88 1289.2 1871.08 1289.2C1854.28 1289.2 1843.98 1281.6 1840.18 1266.4L1830.88 1228.9C1828.08 1217.7 1823.88 1210.2 1818.28 1206.4C1812.88 1202.6 1804.78 1200.7 1793.98 1200.7H1776.88V1253.2C1776.88 1260.8 1777.48 1266.3 1778.68 1269.7C1779.88 1273.1 1782.08 1275.4 1785.28 1276.6C1788.68 1277.8 1793.98 1278.6 1801.18 1279V1285C1791.98 1284.4 1779.28 1284.1 1763.08 1284.1C1745.88 1284.1 1733.08 1284.4 1724.68 1285V1279C1731.88 1278.6 1737.08 1277.8 1740.28 1276.6C1743.68 1275.4 1745.98 1273.1 1747.18 1269.7C1748.38 1266.3 1748.98 1260.8 1748.98 1253.2V1134.4C1748.98 1126.8 1748.38 1121.3 1747.18 1117.9C1745.98 1114.5 1743.68 1112.2 1740.28 1111C1737.08 1109.8 1731.88 1109 1724.68 1108.6V1102.6C1733.08 1103.2 1745.28 1103.5 1761.28 1103.5L1791.88 1103.2C1795.28 1103 1799.18 1102.9 1803.58 1102.9C1825.98 1102.9 1843.08 1107.1 1854.88 1115.5C1866.88 1123.9 1872.88 1134.8 1872.88 1148.2C1872.88 1159.8 1868.18 1170.4 1858.78 1180C1849.58 1189.6 1834.38 1195.7 1813.18 1198.3C1817.18 1198.7 1820.58 1199.1 1823.38 1199.5C1833.98 1201.1 1842.38 1204.3 1848.58 1209.1C1854.78 1213.9 1859.18 1221.6 1861.78 1232.2L1868.38 1259.5C1869.98 1266.5 1871.68 1271.5 1873.48 1274.5C1875.48 1277.3 1877.98 1278.7 1880.98 1278.7C1885.98 1278.7 1891.48 1275.3 1897.48 1268.5L1901.68 1272.4ZM1796.08 1108.6C1790.68 1108.6 1786.58 1109.3 1783.78 1110.7C1781.18 1112.1 1779.38 1114.6 1778.38 1118.2C1777.38 1121.8 1776.88 1127.2 1776.88 1134.4V1194.7H1796.98C1814.58 1194.7 1826.58 1191 1832.98 1183.6C1839.58 1176 1842.88 1165.3 1842.88 1151.5C1842.88 1137.1 1839.18 1126.4 1831.78 1119.4C1824.58 1112.2 1812.68 1108.6 1796.08 1108.6ZM1982.08 1098.4C1990.88 1098.4 1997.78 1099.4 2002.78 1101.4C2007.98 1103.2 2013.28 1105.9 2018.68 1109.5C2023.08 1112.3 2026.48 1113.7 2028.88 1113.7C2030.68 1113.7 2032.08 1112.7 2033.08 1110.7C2034.08 1108.5 2034.88 1105.1 2035.48 1100.5H2042.38C2041.38 1110.9 2040.88 1129.3 2040.88 1155.7H2033.98C2032.78 1141.3 2028.08 1129.1 2019.88 1119.1C2011.88 1109.1 2000.18 1104.1 1984.78 1104.1C1974.18 1104.1 1965.38 1106.9 1958.38 1112.5C1951.58 1118.1 1948.18 1125.2 1948.18 1133.8C1948.18 1140 1949.68 1145.4 1952.68 1150C1955.88 1154.6 1959.88 1158.6 1964.68 1162C1969.68 1165.2 1976.68 1169.2 1985.68 1174L1995.58 1179.4C2007.98 1186 2017.88 1191.9 2025.28 1197.1C2032.88 1202.3 2038.98 1208.3 2043.58 1215.1C2048.18 1221.7 2050.48 1229.4 2050.48 1238.2C2050.48 1254.4 2044.58 1267 2032.78 1276C2021.18 1284.8 2006.58 1289.2 1988.98 1289.2C1979.38 1289.2 1971.48 1288.2 1965.28 1286.2C1959.28 1284.2 1953.48 1281.5 1947.88 1278.1C1943.48 1275.3 1940.08 1273.9 1937.68 1273.9C1935.88 1273.9 1934.48 1275 1933.48 1277.2C1932.48 1279.2 1931.68 1282.5 1931.08 1287.1H1924.18C1924.98 1277.3 1925.38 1255.3 1925.38 1221.1H1932.28C1933.68 1239.7 1938.68 1254.7 1947.28 1266.1C1955.88 1277.5 1969.08 1283.2 1986.88 1283.2C1996.88 1283.2 2005.48 1280.4 2012.68 1274.8C2020.08 1269 2023.78 1260.5 2023.78 1249.3C2023.78 1242.7 2021.88 1236.9 2018.08 1231.9C2014.28 1226.7 2009.18 1222.1 2002.78 1218.1C1996.38 1214.1 1987.48 1209.1 1976.08 1203.1C1959.68 1194.7 1947.18 1186.3 1938.58 1177.9C1929.98 1169.5 1925.68 1158.6 1925.68 1145.2C1925.68 1130.4 1931.08 1118.9 1941.88 1110.7C1952.88 1102.5 1966.28 1098.4 1982.08 1098.4Z" fill="#000D1A"/>
</svg>
